HIERARCHY
ROOT root     
{
	OFFSET 0.0000 0.0000 0.0000
	CHANNELS 6 Xposition Yposition Zposition Zrotation Yrotation Xrotation
	JOINT pelvis   
	{
		OFFSET 0.0000 0.0000 0.0000
		CHANNELS 3 Zrotation Yrotation Xrotation
		JOINT thorax   
		{
			OFFSET 0.0000 23.0750 -5.0000
			CHANNELS 3 Zrotation Yrotation Xrotation
			JOINT rclavicle
			{
				OFFSET 0.0000 28.0009 0.0000
				CHANNELS 3 Zrotation Yrotation Xrotation
				JOINT rhumerus 
				{
					OFFSET -18.5725 5.5939 0.0000
					CHANNELS 3 Zrotation Yrotation Xrotation
					JOINT rradius  
					{
						OFFSET -24.8459 0.0000 0.0000
						CHANNELS 3 Zrotation Yrotation Xrotation
						JOINT rhand    
						{
							OFFSET -24.5477 0.0000 0.0000
							CHANNELS 3 Zrotation Yrotation Xrotation
							End Site
							{
								OFFSET -8.1826 0.0000 0.0000
							}
						}
					}
				}
			}
			JOINT lclavicle
			{
				OFFSET 0.0000 28.0009 0.0000
				CHANNELS 3 Zrotation Yrotation Xrotation
				JOINT lhumerus 
				{
					OFFSET 18.5725 5.5939 0.0000
					CHANNELS 3 Zrotation Yrotation Xrotation
					JOINT lradius  
					{
						OFFSET 24.8459 0.0000 0.0000
						CHANNELS 3 Zrotation Yrotation Xrotation
						JOINT lhand    
						{
							OFFSET 24.5477 0.0000 0.0000
							CHANNELS 3 Zrotation Yrotation Xrotation
							End Site
							{
								OFFSET 8.1826 0.0000 0.0000
							}
						}
					}
				}
			}
			JOINT head     
			{
				OFFSET 0.0000 35.2030 0.0000
				CHANNELS 3 Zrotation Yrotation Xrotation
				End Site
				{
					OFFSET 0.0000 11.7343 0.0000
				}
			}
		}
		JOINT rfemur   
		{
			OFFSET -8.2817 0.0000 0.0000
			CHANNELS 3 Zrotation Yrotation Xrotation
			JOINT rtibia   
			{
				OFFSET 0.0000 -43.3627 0.0000
				CHANNELS 3 Zrotation Yrotation Xrotation
				JOINT rfoot    
				{
					OFFSET 0.0000 -38.2947 0.0000
					CHANNELS 3 Zrotation Yrotation Xrotation
					JOINT rtoes    
					{
						OFFSET 0.0000 0.0000 16.6054
						CHANNELS 3 Zrotation Yrotation Xrotation
						End Site
						{
							OFFSET 0.0000 0.0000 5.5351
						}
					}
				}
			}
		}
		JOINT lfemur   
		{
			OFFSET 8.2817 0.0000 0.0000
			CHANNELS 3 Zrotation Yrotation Xrotation
			JOINT ltibia   
			{
				OFFSET 0.0000 -43.3627 0.0000
				CHANNELS 3 Zrotation Yrotation Xrotation
				JOINT lfoot    
				{
					OFFSET 0.0000 -38.2947 0.0000
					CHANNELS 3 Zrotation Yrotation Xrotation
					JOINT ltoes    
					{
						OFFSET 0.0000 0.0000 16.6054
						CHANNELS 3 Zrotation Yrotation Xrotation
						End Site
						{
							OFFSET 0.0000 0.0000 5.5351
						}
					}
				}
			}
		}
	}
}
MOTION
Frames: 7
Frame Time: .0333333
-31.948 74.782 10.988 -129.298 84.0146 -110.195 0 -0 0 -3.90309 3.12274 18.0425 21.4568 -5.3797 3.26723e-05 56.6526 0.266403 7.84639 -0 87.1164 -0 -6.15975 3.54079 -0.190601 -17.1869 13.0067 -8.36168e-05 -58.0559 20.8191 6.08837 4.22309e-07 -51.5596 -8.74389e-07 -3.86775 8.26934 -0.279706 -1.2916 5.72248 -11.709 6.87393 -23.0911 -23.6894 -0 -0 70.9576 4.63832e-06 13.2378 2.80801 0.66031 -5.75502e-06 -79.0596 -19.0433 13.4498 -64.124 -0 -0 54.8957 4.99501e-05 22.543 -12.9516 174.685 -1.6845e-06 -9.72435 
-31.155 74.705 10.964 -128.427 83.9379 -109.455 0 -0 0 -4.3783 2.96457 18.146 21.4685 -5.26071 -1.663e-05 57.3431 0.260987 7.9794 -3.61986e-06 85.7052 -3.35826e-06 -6.28913 3.65025 -0.200595 -17.1701 12.6496 -0.000130333 -58.14 20.056 5.83606 0 -51.0719 0 -3.50687 8.27883 -0.253897 -1.17079 5.92108 -11.4812 6.54425 -23.1666 -24.0063 -0 -0 72.338 2.65139e-05 13.7747 5.09288 1.2467 4.18099e-06 -79.3809 -18.6708 13.4819 -63.8452 -0 -0 55.7567 -8.08125e-05 22.6451 -13.7 174.357 5.5256e-07 -9.71139 
-30.369 74.639 10.931 -127.622 83.8444 -108.797 0 -0 0 -4.83549 2.78589 18.2556 21.4434 -5.14289 -3.96599e-06 58.0193 0.287573 8.13428 2.00355e-06 84.1992 2.21728e-06 -6.40773 3.74587 -0.2098 -17.1543 12.3007 -5.76861e-05 -58.2089 19.2694 5.58661 0 -50.6192 0 -3.14029 8.26246 -0.226898 -1.11782 6.13704 -11.1756 6.22291 -23.2347 -24.3695 -0 -0 73.7322 -9.8491e-07 14.268 7.40895 1.87814 9.52027e-06 -79.3007 -18.2814 13.492 -63.489 -0 -0 56.527 2.47151e-05 22.7972 -14.4695 174.005 -9.21775e-07 -9.77818 
-29.592 74.584 10.89 -126.848 83.7512 -108.179 0 -0 0 -5.27757 2.59358 18.3641 21.391 -5.02735 -1.64693e-05 58.6722 0.342313 8.31054 -1.76283e-06 82.6139 -1.54896e-06 -6.50292 3.82731 -0.217496 -17.1383 11.9637 3.7601e-06 -58.2652 18.4619 5.33139 0 -50.2076 0 -2.7752 8.21824 -0.1994 -1.13108 6.36455 -10.8043 5.9124 -23.2813 -24.7792 -0 -0 75.1324 5.69206e-05 14.7101 9.69092 2.5304 4.27656e-05 -78.8099 -17.8803 13.4871 -63.0802 -0 -0 57.2321 1.21158e-05 22.9918 -15.2339 173.638 8.11606e-06 -9.93506 
-28.826 74.54 10.841 -126.089 83.659 -107.58 0 -0 0 -5.7076 2.3942 18.4705 21.3198 -4.91508 -5.55079e-06 59.2857 0.419554 8.50593 0 80.9453 0 -6.56591 3.89733 -0.223607 -17.1169 11.6476 -6.56377e-05 -58.3103 17.6256 5.06794 3.94419e-07 -49.8398 -8.48935e-07 -2.41682 8.14526 -0.172102 -1.20718 6.59513 -10.3846 5.61609 -23.294 -25.2365 -0 -0 76.5254 -0.000116926 15.0852 11.8695 3.17333 1.98152e-05 -77.945 -17.4755 13.477 -62.6439 -0 -0 57.8917 3.96881e-05 23.2131 -15.971 173.27 -4.18947e-06 -10.1642 
-28.073 74.507 10.788 -125.357 83.5557 -107.007 0 -0 0 -6.12711 2.19505 18.5684 21.2385 -4.80497 1.06831e-07 59.8551 0.507565 8.71364 0 79.2359 0 -6.59053 3.96139 -0.228201 -17.0934 11.3393 -1.69031e-05 -58.3415 16.7809 4.77821 3.89698e-07 -49.5342 -8.44659e-07 -2.07008 8.04662 -0.145598 -1.34102 6.81899 -9.9327 5.33812 -23.2621 -25.7428 -0 -0 77.9063 7.70303e-05 15.3749 13.8725 3.77191 -3.65501e-05 -76.7332 -17.0788 13.4757 -62.2012 -0 -0 58.5219 9.43601e-05 23.4406 -16.6629 172.913 3.60264e-06 -10.4362 
-27.336 74.485 10.73 -124.65 83.4551 -106.452 0 -0 0 -6.53614 2.0007 18.655 21.1539 -4.69788 4.11144e-06 60.3714 0.597922 8.92788 1.234e-06 77.4946 1.53767e-06 -6.57581 4.02564 -0.231403 -17.0649 11.044 8.57777e-05 -58.3578 15.9185 4.4595 3.8601e-07 -49.2918 -8.41333e-07 -1.73492 7.92568 -0.120194 -1.52638 7.02722 -9.4657 5.08278 -23.1814 -26.2992 -0 -0 79.2635 -0.000103263 15.5528 15.6366 4.29014 -3.93507e-06 -75.2666 -16.6985 13.4931 -61.7676 -0 -0 59.129 2.20688e-06 23.6567 -17.2997 172.578 6.03966e-06 -10.7118 
